<svg xmlns="http://www.w3.org/2000/svg" width="1180" height="580"><rect width="100%" height="100%" fill="#ffffff"/><text x="590" y="30" text-anchor="middle" font-family="Arial" font-size="20" font-weight="700">Generalization by method and split</text><line x1="190" y1="470" x2="1150" y2="470" stroke="#e6e6e6"/><text x="182" y="474" text-anchor="end" font-family="Arial" font-size="12">0.0</text><line x1="190" y1="429" x2="1150" y2="429" stroke="#e6e6e6"/><text x="182" y="433" text-anchor="end" font-family="Arial" font-size="12">0.1</text><line x1="190" y1="388" x2="1150" y2="388" stroke="#e6e6e6"/><text x="182" y="392" text-anchor="end" font-family="Arial" font-size="12">0.2</text><line x1="190" y1="347" x2="1150" y2="347" stroke="#e6e6e6"/><text x="182" y="351" text-anchor="end" font-family="Arial" font-size="12">0.3</text><line x1="190" y1="306" x2="1150" y2="306" stroke="#e6e6e6"/><text x="182" y="310" text-anchor="end" font-family="Arial" font-size="12">0.4</text><line x1="190" y1="265" x2="1150" y2="265" stroke="#e6e6e6"/><text x="182" y="269" text-anchor="end" font-family="Arial" font-size="12">0.5</text><line x1="190" y1="224" x2="1150" y2="224" stroke="#e6e6e6"/><text x="182" y="228" text-anchor="end" font-family="Arial" font-size="12">0.6</text><line x1="190" y1="183" x2="1150" y2="183" stroke="#e6e6e6"/><text x="182" y="187" text-anchor="end" font-family="Arial" font-size="12">0.7</text><line x1="190" y1="142" x2="1150" y2="142" stroke="#e6e6e6"/><text x="182" y="146" text-anchor="end" font-family="Arial" font-size="12">0.8</text><line x1="190" y1="101" x2="1150" y2="101" stroke="#e6e6e6"/><text x="182" y="105" text-anchor="end" font-family="Arial" font-size="12">0.9</text><line x1="190" y1="60" x2="1150" y2="60" stroke="#e6e6e6"/><text x="182" y="64" text-anchor="end" font-family="Arial" font-size="12">1.0</text><text x="310" y="510" text-anchor="middle" font-family="Arial" font-size="13">train</text><rect x="205" y="265" width="22.5" height="205" fill="#4c78a8"/><rect x="235" y="60" width="22.5" height="410" fill="#f58518"/><rect x="265" y="111.25" width="22.5" height="358.75" fill="#54a24b"/><rect x="295" y="241.9375" width="22.5" height="228.0625" fill="#e45756"/><rect x="325" y="60" width="22.5" height="410" fill="#72b7b2"/><rect x="355" y="60" width="22.5" height="410" fill="#b279a2"/><rect x="385" y="60" width="22.5" height="410" fill="#ff9da6"/><text x="550" y="510" text-anchor="middle" font-family="Arial" font-size="13">known test</text><rect x="445" y="265" width="22.5" height="205" fill="#4c78a8"/><rect x="475" y="263.63347" width="22.5" height="206.36653" fill="#f58518"/><rect x="505" y="191.2" width="22.5" height="278.8" fill="#54a24b"/><rect x="535" y="251.33347000000003" width="22.5" height="218.66652999999997" fill="#e45756"/><rect x="565" y="60" width="22.5" height="410" fill="#72b7b2"/><rect x="595" y="60" width="22.5" height="410" fill="#b279a2"/><rect x="625" y="72.30000000000001" width="22.5" height="397.7" fill="#ff9da6"/><text x="790" y="510" text-anchor="middle" font-family="Arial" font-size="13">extrapolation</text><rect x="685" y="265" width="22.5" height="205" fill="#4c78a8"/><rect x="715" y="265" width="22.5" height="205" fill="#f58518"/><rect x="745" y="193.93347" width="22.5" height="276.06653" fill="#54a24b"/><rect x="775" y="233.56652999999997" width="22.5" height="236.43347000000003" fill="#e45756"/><rect x="805" y="60" width="22.5" height="410" fill="#72b7b2"/><rect x="835" y="60" width="22.5" height="410" fill="#b279a2"/><rect x="865" y="133.8" width="22.5" height="336.2" fill="#ff9da6"/><text x="1030" y="510" text-anchor="middle" font-family="Arial" font-size="13">novel objects</text><rect x="925" y="265" width="22.5" height="205" fill="#4c78a8"/><rect x="955" y="265" width="22.5" height="205" fill="#f58518"/><rect x="985" y="200.76653" width="22.5" height="269.23347" fill="#54a24b"/><rect x="1015" y="263.63347" width="22.5" height="206.36653" fill="#e45756"/><rect x="1045" y="60" width="22.5" height="410" fill="#72b7b2"/><rect x="1075" y="265" width="22.5" height="205" fill="#b279a2"/><rect x="1105" y="79.13346999999999" width="22.5" height="390.86653" fill="#ff9da6"/><rect x="190" y="525" width="12" height="12" fill="#4c78a8"/><text x="208" y="535" font-family="Arial" font-size="11">Majority label</text><rect x="350" y="525" width="12" height="12" fill="#f58518"/><text x="368" y="535" font-family="Arial" font-size="11">Exact scene memorizer</text><rect x="510" y="525" width="12" height="12" fill="#54a24b"/><text x="528" y="535" font-family="Arial" font-size="11">3-nearest neighbors on feature counts</text><rect x="670" y="525" width="12" height="12" fill="#e45756"/><text x="688" y="535" font-family="Arial" font-size="11">Logistic feature-bag classifier</text><rect x="830" y="525" width="12" height="12" fill="#72b7b2"/><text x="848" y="535" font-family="Arial" font-size="11">Semantic abductive invariant</text><rect x="190" y="543" width="12" height="12" fill="#b279a2"/><text x="208" y="553" font-family="Arial" font-size="11">Object-id invariant</text><rect x="350" y="543" width="12" height="12" fill="#ff9da6"/><text x="368" y="553" font-family="Arial" font-size="11">HDC residual threshold</text></svg>