<svg xmlns="http://www.w3.org/2000/svg" width="980" height="520"><rect width="100%" height="100%" fill="#ffffff"/><text x="490" y="28" text-anchor="middle" font-family="Arial" font-size="20" font-weight="700">Discovered latent semantic property</text><line x1="545" y1="40" x2="545" y2="468" stroke="#333" stroke-width="1"/><text x="138" y="72.08333333333333" text-anchor="end" font-family="Arial" font-size="14">sunlit</text><rect x="545" y="57.516666666666666" width="316" height="19.133333333333333" fill="#4c78a8"/><text x="869" y="72.08333333333333" text-anchor="start" font-family="Arial" font-size="13">2</text><text x="138" y="106.24999999999999" text-anchor="end" font-family="Arial" font-size="14">moonlit</text><rect x="229" y="91.68333333333332" width="316" height="19.133333333333333" fill="#f58518"/><text x="221" y="106.24999999999999" text-anchor="end" font-family="Arial" font-size="13">-2</text><text x="138" y="140.41666666666666" text-anchor="end" font-family="Arial" font-size="14">iron</text><rect x="545" y="125.85" width="158" height="19.133333333333333" fill="#4c78a8"/><text x="711" y="140.41666666666666" text-anchor="start" font-family="Arial" font-size="13">1</text><text x="138" y="174.58333333333334" text-anchor="end" font-family="Arial" font-size="14">glass</text><rect x="387" y="160.01666666666668" width="158" height="19.133333333333333" fill="#f58518"/><text x="379" y="174.58333333333334" text-anchor="end" font-family="Arial" font-size="13">-1</text><text x="138" y="208.75" text-anchor="end" font-family="Arial" font-size="14">electric</text><rect x="545" y="194.18333333333334" width="158" height="19.133333333333333" fill="#4c78a8"/><text x="711" y="208.75" text-anchor="start" font-family="Arial" font-size="13">1</text><text x="138" y="242.91666666666666" text-anchor="end" font-family="Arial" font-size="14">organic</text><rect x="387" y="228.35" width="158" height="19.133333333333333" fill="#f58518"/><text x="379" y="242.91666666666666" text-anchor="end" font-family="Arial" font-size="13">-1</text><text x="138" y="277.0833333333333" text-anchor="end" font-family="Arial" font-size="14">red</text><rect x="545" y="262.51666666666665" width="0" height="19.133333333333333" fill="#4c78a8"/><text x="553" y="277.0833333333333" text-anchor="start" font-family="Arial" font-size="13">0</text><text x="138" y="311.24999999999994" text-anchor="end" font-family="Arial" font-size="14">blue</text><rect x="545" y="296.6833333333333" width="0" height="19.133333333333333" fill="#4c78a8"/><text x="553" y="311.24999999999994" text-anchor="start" font-family="Arial" font-size="13">0</text><text x="138" y="345.41666666666663" text-anchor="end" font-family="Arial" font-size="14">ancient</text><rect x="545" y="330.84999999999997" width="0" height="19.133333333333333" fill="#4c78a8"/><text x="553" y="345.41666666666663" text-anchor="start" font-family="Arial" font-size="13">0</text><text x="138" y="379.5833333333333" text-anchor="end" font-family="Arial" font-size="14">silent</text><rect x="545" y="365.01666666666665" width="0" height="19.133333333333333" fill="#4c78a8"/><text x="553" y="379.5833333333333" text-anchor="start" font-family="Arial" font-size="13">0</text><text x="138" y="413.74999999999994" text-anchor="end" font-family="Arial" font-size="14">floating</text><rect x="545" y="399.1833333333333" width="0" height="19.133333333333333" fill="#4c78a8"/><text x="553" y="413.74999999999994" text-anchor="start" font-family="Arial" font-size="13">0</text><text x="138" y="447.91666666666663" text-anchor="end" font-family="Arial" font-size="14">engraved</text><rect x="545" y="433.34999999999997" width="0" height="19.133333333333333" fill="#4c78a8"/><text x="553" y="447.91666666666663" text-anchor="start" font-family="Arial" font-size="13">0</text><text x="545" y="496" text-anchor="middle" font-family="Arial" font-size="13">Positive and negative semantic contributions; irrelevant descriptors receive zero weight.</text></svg>