<svg xmlns="http://www.w3.org/2000/svg" width="1100" height="440"><rect width="100%" height="100%" fill="#ffffff"/><text x="550" y="28" text-anchor="middle" font-family="Arial" font-size="20" font-weight="700">Counterfactual repairs proposed by the discovered concept</text><text x="160" y="55" text-anchor="middle" font-family="Arial" font-size="13" font-weight="700">Before residual</text><text x="470" y="55" text-anchor="middle" font-family="Arial" font-size="13" font-weight="700">Addition</text><text x="750" y="55" text-anchor="middle" font-family="Arial" font-size="13" font-weight="700">After residual</text><text x="945" y="55" text-anchor="middle" font-family="Arial" font-size="13" font-weight="700">Oracle verified</text><line x1="45" y1="62" x2="1055" y2="62" stroke="#eee"/><text x="160" y="85" text-anchor="middle" font-family="Arial" font-size="13">2</text><text x="470" y="85" text-anchor="middle" font-family="Arial" font-size="12">1x Glass Moth</text><text x="750" y="85" text-anchor="middle" font-family="Arial" font-size="13">0</text><text x="945" y="85" text-anchor="middle" font-family="Arial" font-size="13">yes</text><line x1="45" y1="100" x2="1055" y2="100" stroke="#eee"/><text x="160" y="123" text-anchor="middle" font-family="Arial" font-size="13">24</text><text x="470" y="123" text-anchor="middle" font-family="Arial" font-size="12">6x Nulltide Lantern</text><text x="750" y="123" text-anchor="middle" font-family="Arial" font-size="13">0</text><text x="945" y="123" text-anchor="middle" font-family="Arial" font-size="13">yes</text><line x1="45" y1="138" x2="1055" y2="138" stroke="#eee"/><text x="160" y="161" text-anchor="middle" font-family="Arial" font-size="13">-24</text><text x="470" y="161" text-anchor="middle" font-family="Arial" font-size="12">6x Helioforge Key</text><text x="750" y="161" text-anchor="middle" font-family="Arial" font-size="13">0</text><text x="945" y="161" text-anchor="middle" font-family="Arial" font-size="13">yes</text><line x1="45" y1="176" x2="1055" y2="176" stroke="#eee"/><text x="160" y="199" text-anchor="middle" font-family="Arial" font-size="13">-4</text><text x="470" y="199" text-anchor="middle" font-family="Arial" font-size="12">1x Helioforge Key</text><text x="750" y="199" text-anchor="middle" font-family="Arial" font-size="13">0</text><text x="945" y="199" text-anchor="middle" font-family="Arial" font-size="13">yes</text><line x1="45" y1="214" x2="1055" y2="214" stroke="#eee"/><text x="160" y="237" text-anchor="middle" font-family="Arial" font-size="13">-15</text><text x="470" y="237" text-anchor="middle" font-family="Arial" font-size="12">5x Solar Needle</text><text x="750" y="237" text-anchor="middle" font-family="Arial" font-size="13">0</text><text x="945" y="237" text-anchor="middle" font-family="Arial" font-size="13">yes</text><line x1="45" y1="252" x2="1055" y2="252" stroke="#eee"/><text x="160" y="275" text-anchor="middle" font-family="Arial" font-size="13">-6</text><text x="470" y="275" text-anchor="middle" font-family="Arial" font-size="12">2x Solar Needle</text><text x="750" y="275" text-anchor="middle" font-family="Arial" font-size="13">0</text><text x="945" y="275" text-anchor="middle" font-family="Arial" font-size="13">yes</text><line x1="45" y1="290" x2="1055" y2="290" stroke="#eee"/><text x="160" y="313" text-anchor="middle" font-family="Arial" font-size="13">14</text><text x="470" y="313" text-anchor="middle" font-family="Arial" font-size="12">2x Nulltide Lantern; 2x Moon Glass</text><text x="750" y="313" text-anchor="middle" font-family="Arial" font-size="13">0</text><text x="945" y="313" text-anchor="middle" font-family="Arial" font-size="13">yes</text><line x1="45" y1="328" x2="1055" y2="328" stroke="#eee"/><text x="160" y="351" text-anchor="middle" font-family="Arial" font-size="13">-18</text><text x="470" y="351" text-anchor="middle" font-family="Arial" font-size="12">6x Solar Needle</text><text x="750" y="351" text-anchor="middle" font-family="Arial" font-size="13">0</text><text x="945" y="351" text-anchor="middle" font-family="Arial" font-size="13">yes</text><text x="550" y="422" text-anchor="middle" font-family="Arial" font-size="12">A pure classifier predicts labels; a concept can propose a repair that changes the world state.</text></svg>